<?xml version="1.0" encoding="utf-8"?>
<svg viewBox="0 0 780 780" xmlns="http://www.w3.org/2000/svg">
  <g id="ocatagon">
    <g id="Layer_48_copy"/>
    <g id="Layer_104"/>
    <g id="Layer_50_copy"/>
    <g id="side-view_copy_2">
      <g id="Layer_24_copy"/>
    </g>
    <g id="Layer_25_copy"/>
    <g id="nuolet-side-view_copy_2">
      <g id="Layer_16_copy_5_3_"/>
    </g>
    <g id="top-view_copy_2"/>
    <g id="nuolet-top-view_copy_2">
      <g id="Layer_16_copy_5_2_"/>
      <g id="Layer_16_copy_5_1_"/>
      <g id="Layer_16_copy_5"/>
    </g>
    <g id="nuolet-mockup_copy_2">
      <g id="Layer_13_copy_2"/>
      <g id="Layer_15_copy_2"/>
      <g id="Layer_23_copy_2"/>
    </g>
    <g id="text_copy_2"/>
  </g>
  <g id="allas_3_">
    <g id="Layer_106" display="none"/>
    <g id="Layer_106_copy_2"/>
    <g id="Layer_106_copy">
      <defs>
        <path id="SVGID_1_" d="M1506.03,207.61l-24.5-10c-0.94-0.38-1.92-0.56-2.96-0.56l-460,7.5c-2.13,0.03-4.14,0.97-5.53,2.57 c-1.4,1.6-2.05,3.73-1.79,5.84l17,139c0.28,2.28,1.59,4.31,3.55,5.5l114.5,69.5c1.17,0.71,2.52,1.09,3.89,1.09h212 c1.32,0,2.61-0.35,3.75-1l120.5-69.5c1.98-1.14,3.33-3.12,3.67-5.38l20.5-136.5C1511.12,212.25,1509.23,208.92,1506.03,207.61z"/>
      </defs>
      <clipPath id="SVGID_2_">
        <path d="M1506.03,207.61l-24.5-10c-0.94-0.38-1.92-0.56-2.96-0.56l-460,7.5c-2.13,0.03-4.14,0.97-5.53,2.57 c-1.4,1.6-2.05,3.73-1.79,5.84l17,139c0.28,2.28,1.59,4.31,3.55,5.5l114.5,69.5c1.17,0.71,2.52,1.09,3.89,1.09h212 c1.32,0,2.61-0.35,3.75-1l120.5-69.5c1.98-1.14,3.33-3.12,3.67-5.38l20.5-136.5C1511.12,212.25,1509.23,208.92,1506.03,207.61z" transform="matrix(1, 0, 0, 1, 0, 0)" overflow="visible"/>
      </clipPath>
      <g id="Layer_3_copy_2" clip-path="url(#SVGID_2_)"/>
      <g id="Layer_3_copy_4" clip-path="url(#SVGID_2_)"/>
    </g>
    <g id="Layer_107"/>
    <g id="vaalea-hohto_1_" opacity="0.2"/>
    <g id="Layer_107_copy_3"/>
    <g id="viivat_1_"/>
  </g>
  <g id="Layer_111"/>
  <g id="square">
    <g id="Layer_48_copy_2"/>
    <g id="Layer_50_copy_2"/>
    <g id="side-view_copy_3">
      <g id="Layer_24_copy_2">
        <path fill="#5A2524" d="M645.66,612.47c0,3.09-2.5,5.59-5.59,5.59H481.92v-85.67l158.15,9c3.09,0,5.59,2.5,5.59,5.59V612.47z"/>
      </g>
      <line fill="none" stroke="#FFFFFF" stroke-linecap="round" stroke-linejoin="round" stroke-miterlimit="10" stroke-dasharray="4" x1="647.17" y1="562.06" x2="480.5" y2="562.06"/>
    </g>
    <g id="Layer_25_copy_2"/>
    <g id="nuolet-side-view_copy_3">
      <g id="Layer_16_copy_6_3_">
        <polygon fill="#B9B8B9" points="671.21,607.37 668.86,612.26 666.52,607.37 &#9;&#9;&#9;"/>
        <polygon fill="#B9B8B9" points="671.21,570.92 668.86,566.02 666.52,570.92 &#9;&#9;&#9;"/>
        <line fill="none" stroke="#B9B8B9" stroke-width="0.75" stroke-miterlimit="10" x1="668.86" y1="570.76" x2="668.86" y2="607.51"/>
        <line fill="none" stroke="#B9B8B9" stroke-width="0.75" stroke-miterlimit="10" x1="674.36" y1="562.26" x2="663.36" y2="562.26"/>
        <line fill="none" stroke="#B9B8B9" stroke-width="0.75" stroke-miterlimit="10" x1="674.36" y1="616.51" x2="663.36" y2="616.51"/>
      </g>
    </g>
    <g id="top-view_copy_3">
      <rect x="144.17" y="552.39" fill="#5A2524" width="21.33" height="4"/>
      <rect x="315.17" y="552.39" fill="#5A2524" width="21.33" height="4"/>
      <rect x="144.17" y="635.72" fill="#5A2524" width="21.33" height="4"/>
      <rect x="315.17" y="635.72" fill="#5A2524" width="21.33" height="4"/>
      <rect x="158" y="515.05" fill="#5A2524" width="164" height="164"/>
      <line fill="none" stroke="#FFFFFF" stroke-linecap="round" stroke-linejoin="round" stroke-miterlimit="10" stroke-dasharray="4" x1="240" y1="515.39" x2="240" y2="679.06"/>
    </g>
    <g id="nuolet-top-view_copy_3">
      <g id="Layer_16_copy_6_2_">
        <polygon fill="#B9B8B9" points="313.36,698.56 318.25,700.9 313.36,703.25 &#9;&#9;&#9;"/>
        <polygon fill="#B9B8B9" points="166.91,698.56 162.01,700.91 166.91,703.25 &#9;&#9;&#9;"/>
        <line fill="none" stroke="#B9B8B9" stroke-width="0.75" stroke-miterlimit="10" x1="166.75" y1="700.9" x2="313.5" y2="700.9"/>
        <line fill="none" stroke="#B9B8B9" stroke-width="0.75" stroke-miterlimit="10" x1="158.25" y1="695.4" x2="158.25" y2="706.4"/>
        <line fill="none" stroke="#B9B8B9" stroke-width="0.75" stroke-miterlimit="10" x1="322.5" y1="695.4" x2="322.5" y2="706.4"/>
      </g>
      <g id="Layer_16_copy_6_1_">
        <polygon fill="#B9B8B9" points="360.21,629.37 357.86,634.26 355.52,629.37 &#9;&#9;&#9;"/>
        <polygon fill="#B9B8B9" points="360.21,563.92 357.86,559.02 355.52,563.92 &#9;&#9;&#9;"/>
        <line fill="none" stroke="#B9B8B9" stroke-width="0.75" stroke-miterlimit="10" x1="357.86" y1="563.76" x2="357.86" y2="629.51"/>
        <line fill="none" stroke="#B9B8B9" stroke-width="0.75" stroke-miterlimit="10" x1="363.36" y1="555.26" x2="352.36" y2="555.26"/>
        <line fill="none" stroke="#B9B8B9" stroke-width="0.75" stroke-miterlimit="10" x1="363.36" y1="638.51" x2="352.36" y2="638.51"/>
      </g>
      <g id="Layer_16_copy_6">
        <polygon fill="#B9B8B9" points="130.21,669.37 127.86,674.26 125.52,669.37 &#9;&#9;&#9;"/>
        <polygon fill="#B9B8B9" points="130.21,522.92 127.86,518.02 125.52,522.92 &#9;&#9;&#9;"/>
        <line fill="none" stroke="#B9B8B9" stroke-width="0.75" stroke-miterlimit="10" x1="127.86" y1="522.76" x2="127.86" y2="669.51"/>
        <line fill="none" stroke="#B9B8B9" stroke-width="0.75" stroke-miterlimit="10" x1="133.36" y1="514.26" x2="122.36" y2="514.26"/>
        <line fill="none" stroke="#B9B8B9" stroke-width="0.75" stroke-miterlimit="10" x1="133.36" y1="678.51" x2="122.36" y2="678.51"/>
      </g>
    </g>
    <g id="cover-mockup_copy_2">
      <g id="allas_copy_2">
        <path fill="#DFE0E2" stroke="#CECECD" stroke-width="0.5" stroke-miterlimit="10" d="M132.81,169.49 c0,0,17.35,115.6,18.75,120.95s1.59,5.53,3.8,7.03c6.61,4.49,191.99,136.08,226.08,160.25c3.58,2.54,6.5,1.64,9.5-0.08 c35.33-20.3,260.44-150.26,265.06-152.93c2-1.16,4.13-2.41,4.57-4.97c0.54-3.15,18.16-119.19,18.16-119.19"/>
        <g id="Layer_77_copy">
          <defs>
            <path id="SVGID_3_" d="M132.81,169.49c0,0,17.35,115.6,18.75,120.95s1.59,5.53,3.8,7.03c6.61,4.49,191.99,136.08,226.08,160.25 c3.58,2.54,6.5,1.64,9.5-0.08c35.33-20.3,260.44-150.26,265.06-152.93c2-1.16,4.13-2.41,4.57-4.97 c0.54-3.15,18.16-119.19,18.16-119.19"/>
          </defs>
          <clipPath id="SVGID_4_">
            <path d="M132.81,169.49c0,0,17.35,115.6,18.75,120.95s1.59,5.53,3.8,7.03c6.61,4.49,191.99,136.08,226.08,160.25 c3.58,2.54,6.5,1.64,9.5-0.08c35.33-20.3,260.44-150.26,265.06-152.93c2-1.16,4.13-2.41,4.57-4.97 c0.54-3.15,18.16-119.19,18.16-119.19" transform="matrix(1, 0, 0, 1, 0, 0)" overflow="visible"/>
          </clipPath>
          <g id="Layer_3_copy_3_1_" clip-path="url(#SVGID_4_)">
            <line fill="none" stroke="#F4F4F4" stroke-miterlimit="10" x1="381.17" y1="284.05" x2="383.84" y2="461.39"/>
            <line fill="none" stroke="#F4F4F4" stroke-miterlimit="10" x1="304.17" y1="256.05" x2="306.84" y2="433.39"/>
            <line fill="none" stroke="#F4F4F4" stroke-miterlimit="10" x1="353.67" y1="271.05" x2="356.34" y2="448.39"/>
            <line fill="none" stroke="#F4F4F4" stroke-miterlimit="10" x1="259.17" y1="231.05" x2="261.84" y2="408.39"/>
            <line fill="none" stroke="#F4F4F4" stroke-miterlimit="10" x1="283.17" y1="242.55" x2="285.84" y2="419.89"/>
            <line fill="none" stroke="#F4F4F4" stroke-miterlimit="10" x1="214.17" y1="203.55" x2="218.84" y2="380.89"/>
            <line fill="none" stroke="#F4F4F4" stroke-miterlimit="10" x1="236.42" y1="219.8" x2="239.09" y2="397.14"/>
            <line fill="none" stroke="#F4F4F4" stroke-miterlimit="10" x1="149.92" y1="165.3" x2="162.59" y2="342.64"/>
            <line fill="none" stroke="#F4F4F4" stroke-miterlimit="10" x1="170.42" y1="173.8" x2="179.09" y2="351.14"/>
            <line fill="none" stroke="#F4F4F4" stroke-miterlimit="10" x1="191.92" y1="182.8" x2="198.59" y2="360.14"/>
            <line fill="none" stroke="#F4F4F4" stroke-miterlimit="10" x1="408.67" y1="285.05" x2="411.34" y2="462.39"/>
            <line fill="none" stroke="#F4F4F4" stroke-miterlimit="10" x1="435.67" y1="268.55" x2="438.34" y2="445.89"/>
            <line fill="none" stroke="#F4F4F4" stroke-miterlimit="10" x1="462.17" y1="257.05" x2="464.84" y2="434.39"/>
            <line fill="none" stroke="#F4F4F4" stroke-miterlimit="10" x1="486.67" y1="236.55" x2="489.34" y2="413.89"/>
            <line fill="none" stroke="#F4F4F4" stroke-miterlimit="10" x1="509.67" y1="231.05" x2="512.34" y2="408.39"/>
            <line fill="none" stroke="#F4F4F4" stroke-miterlimit="10" x1="533.67" y1="221.55" x2="536.34" y2="398.89"/>
            <line fill="none" stroke="#F4F4F4" stroke-miterlimit="10" x1="556.67" y1="204.05" x2="559.34" y2="381.39"/>
            <line fill="none" stroke="#F4F4F4" stroke-miterlimit="10" x1="579.17" y1="195.05" x2="581.84" y2="372.39"/>
            <line fill="none" stroke="#F4F4F4" stroke-miterlimit="10" x1="601.67" y1="186.05" x2="600.34" y2="363.39"/>
            <line fill="none" stroke="#F4F4F4" stroke-miterlimit="10" x1="622.67" y1="180.55" x2="618.34" y2="357.89"/>
            <line fill="none" stroke="#F4F4F4" stroke-miterlimit="10" x1="640.17" y1="175.05" x2="634.84" y2="352.39"/>
            <line fill="none" stroke="#F4F4F4" stroke-miterlimit="10" x1="659.67" y1="170.55" x2="646.33" y2="347.89"/>
          </g>
          <g id="Layer_3_copy_3" clip-path="url(#SVGID_4_)">
            <line fill="none" stroke="#CECECD" stroke-miterlimit="10" x1="382.17" y1="284.05" x2="384.84" y2="461.39"/>
            <line fill="none" stroke="#CECECD" stroke-miterlimit="10" x1="305.17" y1="256.05" x2="307.84" y2="433.39"/>
            <line fill="none" stroke="#CECECD" stroke-miterlimit="10" x1="328.67" y1="256.05" x2="331.34" y2="433.39"/>
            <line fill="none" stroke="#F4F4F4" stroke-miterlimit="10" x1="327.67" y1="256.05" x2="330.34" y2="433.39"/>
            <line fill="none" stroke="#CECECD" stroke-miterlimit="10" x1="354.67" y1="271.05" x2="357.34" y2="448.39"/>
            <line fill="none" stroke="#CECECD" stroke-miterlimit="10" x1="260.17" y1="231.05" x2="262.84" y2="408.39"/>
            <line fill="none" stroke="#CECECD" stroke-miterlimit="10" x1="284.17" y1="242.55" x2="286.84" y2="419.89"/>
            <line fill="none" stroke="#CECECD" stroke-miterlimit="10" x1="215.17" y1="203.55" x2="219.84" y2="380.89"/>
            <line fill="none" stroke="#CECECD" stroke-miterlimit="10" x1="237.42" y1="219.8" x2="240.09" y2="397.14"/>
            <line fill="none" stroke="#CECECD" stroke-miterlimit="10" x1="150.92" y1="165.3" x2="163.59" y2="342.64"/>
            <line fill="none" stroke="#CECECD" stroke-miterlimit="10" x1="171.42" y1="173.8" x2="180.09" y2="351.14"/>
            <line fill="none" stroke="#CECECD" stroke-miterlimit="10" x1="192.92" y1="182.8" x2="199.59" y2="360.14"/>
            <line fill="none" stroke="#CECECD" stroke-miterlimit="10" x1="409.67" y1="285.05" x2="412.34" y2="462.39"/>
            <line fill="none" stroke="#CECECD" stroke-miterlimit="10" x1="436.67" y1="268.55" x2="439.34" y2="445.89"/>
            <line fill="none" stroke="#CECECD" stroke-miterlimit="10" x1="463.17" y1="257.05" x2="465.84" y2="434.39"/>
            <line fill="none" stroke="#CECECD" stroke-miterlimit="10" x1="487.67" y1="236.55" x2="490.34" y2="413.89"/>
            <line fill="none" stroke="#CECECD" stroke-miterlimit="10" x1="510.67" y1="231.05" x2="513.34" y2="408.39"/>
            <line fill="none" stroke="#CECECD" stroke-miterlimit="10" x1="534.67" y1="221.55" x2="537.34" y2="398.89"/>
            <line fill="none" stroke="#CECECD" stroke-miterlimit="10" x1="557.67" y1="204.05" x2="560.34" y2="381.39"/>
            <line fill="none" stroke="#CECECD" stroke-miterlimit="10" x1="580.17" y1="195.05" x2="582.84" y2="372.39"/>
            <line fill="none" stroke="#CECECD" stroke-miterlimit="10" x1="602.67" y1="186.05" x2="601.34" y2="363.39"/>
            <line fill="none" stroke="#CECECD" stroke-miterlimit="10" x1="623.67" y1="180.55" x2="619.34" y2="357.89"/>
            <line fill="none" stroke="#CECECD" stroke-miterlimit="10" x1="641.17" y1="175.05" x2="635.84" y2="352.39"/>
            <line fill="none" stroke="#CECECD" stroke-miterlimit="10" x1="660.67" y1="170.55" x2="647.33" y2="347.89"/>
          </g>
        </g>
      </g>
      <g id="kansi_copy_2">
        <path id="kannen-savy_2_" fill="#5A2524" d="M129.77,168.3c-1.56-0.83-2.16-1.3-2.71-4.88c-1.4-9.16-2.68-20.45-3.38-26 c-0.33-2.65,0.33-2.44,3.88-3.22c14.89-3.26,274.09-52.58,283.29-54.24c4.17-0.75,6.75-1,11.88-0.08 c2.9,0.52,111.42,18.93,111.42,18.93s148.56,43.32,151.98,44.36c1.81,0.55,4.19,1.17,3.69,4.04c-1.04,6.01-3.23,16.04-5.56,27.4 c-0.72,3.51-1.41,4.39-3.14,5.06S411.76,288.91,390.94,297.3c-9.5,3.83-9.5,4.67-20.83-1.33 C351.97,286.37,131.33,169.13,129.77,168.3z"/>
        <g id="Layer_49_copy_2">
          <polygon fill="#5A2524" points="627.89,231.98 633.02,228.49 634.02,196.97 627.89,196.97 &#9;&#9;&#9;&#9;"/>
          <polygon fill="#5A2524" points="418.44,318.06 425.47,314.06 425.47,277.89 418.44,277.89 &#9;&#9;&#9;&#9;"/>
        </g>
        <path id="vaalea-hohto_2_" opacity="0.2" fill="#FFFFFF" d="M123.75,136.43c0,0-0.92-1.11,1.81-1.73 c1.78-0.41,6.71-1.56,12.75-2.64c15-2.69,259.69-49.67,268.88-51.42c9.19-1.74,16.65-0.5,23.75,0.67 C433.95,81.8,533,98.55,533,98.55s142.06,41.55,146.86,42.92c2.67,0.76,7.33,1.75,8.21,2.29c2.74,1.69,1.29,2.13,1.29,2.13 S409.42,249.42,393.61,255.22c-11.58,4.25-11.92,5.5-21.75,0.5c-7.6-3.87-151.2-81.27-151.2-81.27L123.75,136.43z"/>
        <g id="viivat_copy_2">
          <g opacity="0.5">
            <g>
              <path fill="none" stroke="#FFFFFF" stroke-linecap="round" stroke-linejoin="round" d="M686.48,157.81 c-0.34,0.14-0.96,0.39-1.85,0.75"/>
              <path fill="none" stroke="#FFFFFF" stroke-linecap="round" stroke-linejoin="round" stroke-dasharray="3.9838,3.9838" d=" M680.94,160.04c-41.55,16.73-291.31,116.85-300.87,116.14c-7.01-0.53-220.71-109.56-251.31-125.51"/>
              <path fill="none" stroke="#FFFFFF" stroke-linecap="round" stroke-linejoin="round" d="M126.99,149.75 c-0.93-0.49-1.53-0.81-1.76-0.94"/>
            </g>
          </g>
          <g opacity="0.5">
            <g>
              <line fill="none" stroke="#FFFFFF" stroke-linecap="round" stroke-linejoin="round" x1="531.65" y1="99.22" x2="529.7" y2="99.69"/>
              <path fill="none" stroke="#FFFFFF" stroke-linecap="round" stroke-linejoin="round" stroke-dasharray="4.0183,4.0183" d=" M525.79,100.63l-301.65,72.5c0,0-3.01,0.92-3.08,4.76c-0.05,3.04,0.55,25.94,0.8,35.33"/>
              <path fill="none" stroke="#FFFFFF" stroke-linecap="round" stroke-linejoin="round" d="M221.92,215.23 c0.03,1.26,0.05,2,0.05,2"/>
            </g>
          </g>
        </g>
      </g>
    </g>
    <g id="nuolet-mockup_copy_3">
      <g id="Layer_13_copy_3">
        <line fill="none" stroke="#B9B8B9" stroke-width="0.75" stroke-miterlimit="10" x1="130.5" y1="109.72" x2="405.83" y2="62.72"/>
        <line fill="none" stroke="#B9B8B9" stroke-width="0.75" stroke-miterlimit="10" x1="424.5" y1="62.89" x2="680.17" y2="111.05"/>
        <line fill="none" stroke="#B9B8B9" stroke-width="0.75" stroke-miterlimit="10" x1="123.5" y1="101.39" x2="123.5" y2="118.72"/>
        <line fill="none" stroke="#B9B8B9" stroke-width="0.75" stroke-miterlimit="10" x1="415.5" y1="54.05" x2="415.5" y2="71.39"/>
        <line fill="none" stroke="#B9B8B9" stroke-miterlimit="10" x1="688.84" y1="103.72" x2="688.84" y2="121.06"/>
      </g>
      <g id="Layer_15_copy_3">
        <polygon fill="#B9B8B9" points="404.5,60.56 409.71,62.11 405.24,65.2 &#9;&#9;&#9;"/>
        <polygon fill="#B9B8B9" points="679.67,108.6 684.04,111.82 678.8,113.2 &#9;&#9;&#9;"/>
        <polygon fill="#B9B8B9" points="425.42,65.27 420.93,62.22 426.12,60.63 &#9;&#9;&#9;"/>
        <polygon fill="#B9B8B9" points="132.59,106.95 128.15,110.07 133.36,111.57 &#9;&#9;&#9;"/>
      </g>
      <g id="Layer_23_copy_3">
        <polygon fill="#B9B8B9" points="109.3,165.37 106.96,170.26 104.62,165.37 &#9;&#9;&#9;"/>
        <polygon fill="#B9B8B9" points="109.31,157.92 106.96,153.02 104.62,157.92 &#9;&#9;&#9;"/>
        <line fill="none" stroke="#B9B8B9" stroke-width="0.75" stroke-miterlimit="10" x1="106.96" y1="157.76" x2="106.96" y2="165.51"/>
        <line fill="none" stroke="#B9B8B9" stroke-width="0.75" stroke-miterlimit="10" x1="112.21" y1="149.26" x2="101.21" y2="149.26"/>
        <line fill="none" stroke="#B9B8B9" stroke-width="0.75" stroke-miterlimit="10" x1="112.21" y1="173.51" x2="101.21" y2="173.51"/>
      </g>
    </g>
    <g id="text_copy_3">
      <rect x="220.5" y="45.05" fill="none" width="109" height="25"/>
      <text transform="matrix(1 0 0 1 220.502 55.6948)" style="fill: rgb(18, 17, 18); font-family: &quot;Open Sans&quot;; font-size: 14px; white-space: pre;">A = 200 cm</text>
      <rect x="26" y="155.05" fill="none" width="72.21" height="27"/>
      <text style="fill: rgb(18, 17, 18); font-family: &quot;Open Sans&quot;; font-size: 14px; white-space: pre; text-anchor: end;" x="86" y="165.695">D = 10 cm</text>
      <rect x="42" y="590.39" fill="none" width="109" height="25"/>
      <text style="fill: rgb(18, 17, 18); font-family: &quot;Open Sans&quot;; font-size: 14px; white-space: pre; text-anchor: end;" x="109.944" y="601.029">A = 200 cm</text>
      <rect x="157.5" y="485.55" fill="none" width="109" height="25"/>
      <text transform="matrix(1 0 0 1 157.502 494.6748)" style="fill: rgb(18, 17, 18); font-family: &quot;Open Sans&quot;; font-size: 12px; font-weight: 700; white-space: pre;">YLÄKUVA</text>
      <rect x="481.5" y="485.89" fill="none" width="109" height="25"/>
      <text transform="matrix(1 0 0 1 481.502 495.0078)" style="fill: rgb(18, 17, 18); font-family: &quot;Open Sans&quot;; font-size: 12px; font-weight: 700; white-space: pre;">SIVUKUVA</text>
      <rect x="481.5" y="504.22" fill="none" width="109" height="25"/>
      <text transform="matrix(1 0 0 1 481.502 513.3408)" style="fill: rgb(18, 17, 18); font-family: &quot;Open Sans&quot;; font-size: 12px; white-space: pre;">Helman pituus</text>
      <rect x="200.84" y="717.72" fill="none" width="109" height="25"/>
      <text transform="matrix(1 0 0 1 200.8359 728.3613)" style="fill: rgb(18, 17, 18); font-family: &quot;Open Sans&quot;; font-size: 14px; white-space: pre;">B = 200 cm</text>
      <rect x="370.75" y="593.39" fill="none" width="86.08" height="25"/>
      <text transform="matrix(1 0 0 1 370.7539 604.0293)" style="fill: rgb(18, 17, 18); font-family: &quot;Open Sans&quot;; font-size: 14px; white-space: pre;">E = 70 cm</text>
      <rect x="682.09" y="583.06" fill="none" width="109" height="25"/>
      <text transform="matrix(1 0 0 1 682.0879 593.6953)" style="fill: rgb(18, 17, 18); font-family: &quot;Open Sans&quot;; font-size: 14px; white-space: pre;">D = 5 cm</text>
      <rect x="518.5" y="45.05" fill="none" width="109" height="25"/>
      <text transform="matrix(1 0 0 1 518.502 55.6948)" style="fill: rgb(18, 17, 18); font-family: &quot;Open Sans&quot;; font-size: 14px; white-space: pre;">B = 200 cm</text>
    </g>
  </g>
  <g id="circular">
    <g id="side-view_copy">
      <g id="Layer_51"/>
    </g>
    <g id="nuolet-side-view_copy">
      <g id="Layer_16_copy_4_3_"/>
    </g>
    <g id="top-view_copy">
      <g id="Layer_47"/>
    </g>
    <g id="nuolet-top-view_copy">
      <g id="Layer_16_copy_4_2_"/>
      <g id="Layer_16_copy_4_1_" display="none"/>
      <g id="Layer_16_copy_4"/>
    </g>
    <g id="nuolet-mockup_copy">
      <g id="Layer_13_copy"/>
      <g id="Layer_15_copy"/>
      <g id="Layer_23_copy"/>
    </g>
    <g id="text_copy"/>
    <g id="allas_2_">
      <g id="allas_1_">
        <g id="viivat-tummat">
          <defs>
            <path id="SVGID_5_" d="M-231.02,327.58c-10.69,45.87-109.29,105.28-232.27,105.28c-122.98,0-212.45-59.22-222.27-105.28 c-5.24-24.58-29.32-142.76-29.32-142.76h517.65C-197.23,184.82-220.64,283.05-231.02,327.58z"/>
          </defs>
          <clipPath id="SVGID_6_">
            <path d="M-231.02,327.58c-10.69,45.87-109.29,105.28-232.27,105.28c-122.98,0-212.45-59.22-222.27-105.28 c-5.24-24.58-29.32-142.76-29.32-142.76h517.65C-197.23,184.82-220.64,283.05-231.02,327.58z" transform="matrix(1, 0, 0, 1, 0, 0)" overflow="visible" opacity="0.2"/>
          </clipPath>
          <g id="Layer_55" clip-path="url(#SVGID_6_)"/>
          <g id="Layer_57" clip-path="url(#SVGID_6_)"/>
          <g id="Layer_57_copy" clip-path="url(#SVGID_6_)"/>
        </g>
      </g>
    </g>
  </g>
  <g id="rounded-corners">
    <g id="Layer_48"/>
    <g id="Layer_50"/>
    <g id="side-view">
      <g id="Layer_24"/>
    </g>
    <g id="Layer_25"/>
    <g id="nuolet-side-view">
      <g id="Layer_16_copy_3"/>
    </g>
    <g id="top-view"/>
    <g id="nuolet-top-view">
      <g id="Layer_16"/>
      <g id="Layer_16_copy"/>
      <g id="Layer_16_copy_2"/>
    </g>
    <g id="cover-mockup">
      <g id="allas">
        <g id="Layer_3">
          <defs>
            <path id="SVGID_7_" d="M-1593.04,163.41c0,0,18.92,121.19,20.31,126.54c1.4,5.35,1.08,4.73,8.22,9.92 c7.13,5.2,173.88,126.5,192.28,139.56c21.4,15.2,37.45,16.13,61.17,6.12c23.72-10,238.03-138.01,242.76-141.34 s5.19-10.31,5.19-10.31l18.38-121.81L-1593.04,163.41z"/>
          </defs>
        </g>
        <g id="Layer_3_copy">
          <defs>
            <path id="SVGID_9_" d="M-1593.04,163.41c0,0,18.92,121.19,20.31,126.54c1.4,5.35,1.08,4.73,8.22,9.92 c7.13,5.2,173.88,126.5,192.28,139.56c21.4,15.2,37.45,16.13,61.17,6.12c23.72-10,238.03-138.01,242.76-141.34 s5.19-10.31,5.19-10.31l18.38-121.81L-1593.04,163.41z"/>
          </defs>
        </g>
      </g>
      <g id="kansi">
        <g id="Layer_49"/>
        <g id="viivat"/>
      </g>
    </g>
    <g id="nuolet-mockup">
      <g id="Layer_13"/>
      <g id="Layer_15"/>
      <g id="Layer_23"/>
    </g>
    <g id="text"/>
  </g>
  <g id="Layer_105"/>
</svg>