<?xml version="1.0" encoding="utf-8"?>
<svg viewBox="0 0 780 780" xmlns="http://www.w3.org/2000/svg">
  <g id="ocatagon">
    <g id="Layer_48_copy"/>
    <g id="Layer_104"/>
    <g id="Layer_50_copy"/>
    <g id="side-view_copy_2">
      <g id="Layer_24_copy"/>
    </g>
    <g id="Layer_25_copy"/>
    <g id="nuolet-side-view_copy_2">
      <g id="Layer_16_copy_5_3_"/>
    </g>
    <g id="top-view_copy_2"/>
    <g id="nuolet-top-view_copy_2">
      <g id="Layer_16_copy_5_2_"/>
      <g id="Layer_16_copy_5_1_"/>
      <g id="Layer_16_copy_5"/>
    </g>
    <g id="nuolet-mockup_copy_2">
      <g id="Layer_13_copy_2"/>
      <g id="Layer_15_copy_2"/>
      <g id="Layer_23_copy_2"/>
    </g>
    <g id="text_copy_2"/>
  </g>
  <g id="allas_3_">
    <g id="Layer_106" display="none"/>
    <g id="Layer_106_copy_2"/>
    <g id="Layer_106_copy">
      <defs>
        <path id="SVGID_1_" d="M3229.8,207.61l-24.5-10c-0.94-0.38-1.92-0.56-2.96-0.56l-460,7.5c-2.13,0.03-4.14,0.97-5.53,2.57 c-1.4,1.6-2.05,3.73-1.79,5.84l17,139c0.28,2.28,1.59,4.31,3.55,5.5l114.5,69.5c1.17,0.71,2.52,1.09,3.89,1.09h212 c1.32,0,2.61-0.35,3.75-1l120.5-69.5c1.98-1.14,3.33-3.12,3.67-5.38l20.5-136.5C3234.9,212.25,3233.01,208.92,3229.8,207.61z"/>
      </defs>
      <clipPath id="SVGID_2_">
        <path d="M3229.8,207.61l-24.5-10c-0.94-0.38-1.92-0.56-2.96-0.56l-460,7.5c-2.13,0.03-4.14,0.97-5.53,2.57 c-1.4,1.6-2.05,3.73-1.79,5.84l17,139c0.28,2.28,1.59,4.31,3.55,5.5l114.5,69.5c1.17,0.71,2.52,1.09,3.89,1.09h212 c1.32,0,2.61-0.35,3.75-1l120.5-69.5c1.98-1.14,3.33-3.12,3.67-5.38l20.5-136.5C3234.9,212.25,3233.01,208.92,3229.8,207.61z" transform="matrix(1, 0, 0, 1, 0, 0)" overflow="visible"/>
      </clipPath>
      <g id="Layer_3_copy_2" clip-path="url(#SVGID_2_)"/>
      <g id="Layer_3_copy_4" clip-path="url(#SVGID_2_)"/>
    </g>
    <g id="Layer_107"/>
    <g id="vaalea-hohto_1_" opacity="0.2"/>
    <g id="Layer_107_copy_3"/>
    <g id="viivat_1_"/>
  </g>
  <g id="Layer_111"/>
  <g id="square">
    <g id="Layer_48_copy_2"/>
    <g id="Layer_50_copy_2"/>
    <g id="side-view_copy_3">
      <g id="Layer_24_copy_2"/>
    </g>
    <g id="Layer_25_copy_2"/>
    <g id="nuolet-side-view_copy_3">
      <g id="Layer_16_copy_6_3_"/>
    </g>
    <g id="top-view_copy_3"/>
    <g id="nuolet-top-view_copy_3">
      <g id="Layer_16_copy_6_2_"/>
      <g id="Layer_16_copy_6_1_"/>
      <g id="Layer_16_copy_6"/>
    </g>
    <g id="cover-mockup_copy_2">
      <g id="allas_copy_2">
        <g id="Layer_77_copy">
          <defs>
            <path id="SVGID_3_" d="M1856.59,169.49c0,0,17.35,115.6,18.75,120.95s1.59,5.53,3.8,7.03 c6.61,4.49,191.99,136.08,226.08,160.25c3.58,2.54,6.5,1.64,9.5-0.08c35.33-20.3,260.44-150.26,265.06-152.93 c2-1.16,4.13-2.41,4.57-4.97c0.54-3.15,18.16-119.19,18.16-119.19"/>
          </defs>
          <clipPath id="SVGID_4_">
            <path d="M1856.59,169.49c0,0,17.35,115.6,18.75,120.95s1.59,5.53,3.8,7.03 c6.61,4.49,191.99,136.08,226.08,160.25c3.58,2.54,6.5,1.64,9.5-0.08c35.33-20.3,260.44-150.26,265.06-152.93 c2-1.16,4.13-2.41,4.57-4.97c0.54-3.15,18.16-119.19,18.16-119.19" transform="matrix(1, 0, 0, 1, 0, 0)" overflow="visible"/>
          </clipPath>
          <g id="Layer_3_copy_3_1_" clip-path="url(#SVGID_4_)"/>
          <g id="Layer_3_copy_3" clip-path="url(#SVGID_4_)"/>
        </g>
      </g>
      <g id="kansi_copy_2">
        <g id="Layer_49_copy_2"/>
        <g id="viivat_copy_2"/>
      </g>
    </g>
    <g id="nuolet-mockup_copy_3">
      <g id="Layer_13_copy_3"/>
      <g id="Layer_15_copy_3"/>
      <g id="Layer_23_copy_3"/>
    </g>
    <g id="text_copy_3"/>
  </g>
  <g id="circular">
    <g id="side-view_copy">
      <g id="Layer_51"/>
    </g>
    <g id="nuolet-side-view_copy">
      <g id="Layer_16_copy_4_3_"/>
    </g>
    <g id="top-view_copy">
      <g id="Layer_47"/>
    </g>
    <g id="nuolet-top-view_copy">
      <g id="Layer_16_copy_4_2_"/>
      <g id="Layer_16_copy_4_1_" display="none"/>
      <g id="Layer_16_copy_4"/>
    </g>
    <g id="nuolet-mockup_copy">
      <g id="Layer_13_copy"/>
      <g id="Layer_15_copy"/>
      <g id="Layer_23_copy"/>
    </g>
    <g id="text_copy"/>
    <g id="allas_2_">
      <g id="allas_1_">
        <g id="viivat-tummat">
          <defs>
            <path id="SVGID_5_" d="M1492.76,327.58c-10.69,45.87-109.29,105.28-232.27,105.28c-122.98,0-212.45-59.22-222.27-105.28 c-5.24-24.58-29.32-142.76-29.32-142.76h517.65C1526.54,184.82,1503.14,283.05,1492.76,327.58z"/>
          </defs>
          <clipPath id="SVGID_6_">
            <path d="M1492.76,327.58c-10.69,45.87-109.29,105.28-232.27,105.28c-122.98,0-212.45-59.22-222.27-105.28 c-5.24-24.58-29.32-142.76-29.32-142.76h517.65C1526.54,184.82,1503.14,283.05,1492.76,327.58z" transform="matrix(1, 0, 0, 1, 0, 0)" overflow="visible" opacity="0.2"/>
          </clipPath>
          <g id="Layer_55" clip-path="url(#SVGID_6_)"/>
          <g id="Layer_57" clip-path="url(#SVGID_6_)"/>
          <g id="Layer_57_copy" clip-path="url(#SVGID_6_)"/>
        </g>
      </g>
    </g>
  </g>
  <g id="rounded-corners">
    <g id="Layer_48">
      <path fill="#5A2524" d="M481.97,751.11h84.5v-15.98c0-37.97-30.78-68.74-68.74-68.74h-15.76V751.11z"/>
    </g>
    <g id="Layer_50">
      <polygon fill="#B9B8B9" points="587.17,718.37 584.83,723.26 582.48,718.37 &#9;&#9;"/>
      <polygon fill="#B9B8B9" points="587.17,675.92 584.83,671.02 582.48,675.92 &#9;&#9;"/>
      <line fill="none" stroke="#B9B8B9" stroke-width="0.75" stroke-miterlimit="10" x1="584.83" y1="675.76" x2="584.83" y2="718.51"/>
      <line fill="none" stroke="#B9B8B9" stroke-width="0.75" stroke-miterlimit="10" x1="590.33" y1="667.26" x2="579.33" y2="667.26"/>
      <line fill="none" stroke="#B9B8B9" stroke-width="0.75" stroke-miterlimit="10" x1="590.33" y1="727.51" x2="579.33" y2="727.51"/>
    </g>
    <g id="side-view">
      <g id="Layer_24">
        <path fill="#5A2524" d="M645.63,612.47c0,3.09-2.5,5.59-5.59,5.59H481.89v-85.67l158.15,9c3.09,0,5.59,2.5,5.59,5.59V612.47z"/>
      </g>
      <line fill="none" stroke="#FFFFFF" stroke-linecap="round" stroke-linejoin="round" stroke-miterlimit="10" stroke-dasharray="4" x1="647.14" y1="562.06" x2="481.47" y2="562.06"/>
    </g>
    <g id="Layer_25"/>
    <g id="nuolet-side-view">
      <g id="Layer_16_copy_3">
        <polygon fill="#B9B8B9" points="671.17,607.37 668.83,612.26 666.48,607.37 &#9;&#9;&#9;"/>
        <polygon fill="#B9B8B9" points="671.17,570.92 668.83,566.02 666.48,570.92 &#9;&#9;&#9;"/>
        <line fill="none" stroke="#B9B8B9" stroke-width="0.75" stroke-miterlimit="10" x1="668.83" y1="570.76" x2="668.83" y2="607.51"/>
        <line fill="none" stroke="#B9B8B9" stroke-width="0.75" stroke-miterlimit="10" x1="674.33" y1="562.26" x2="663.33" y2="562.26"/>
        <line fill="none" stroke="#B9B8B9" stroke-width="0.75" stroke-miterlimit="10" x1="674.33" y1="616.51" x2="663.33" y2="616.51"/>
      </g>
    </g>
    <g id="top-view">
      <path fill="#5A2524" d="M321.97,667.1c0,6.6-5.35,11.95-11.95,11.95h-140.1c-6.6,0-11.95-5.35-11.95-11.95v-140.1 c0-6.6,5.35-11.95,11.95-11.95h140.1c6.6,0,11.95,5.35,11.95,11.95V667.1z"/>
      <rect x="144.14" y="552.39" fill="#5A2524" width="21.33" height="4"/>
      <rect x="315.14" y="552.39" fill="#5A2524" width="21.33" height="4"/>
      <rect x="144.14" y="635.72" fill="#5A2524" width="21.33" height="4"/>
      <rect x="315.14" y="635.72" fill="#5A2524" width="21.33" height="4"/>
      <line fill="none" stroke="#FFFFFF" stroke-linecap="round" stroke-linejoin="round" stroke-miterlimit="10" stroke-dasharray="4" x1="239.97" y1="515.39" x2="239.97" y2="679.06"/>
    </g>
    <g id="nuolet-top-view">
      <g id="Layer_16">
        <polygon fill="#B9B8B9" points="313.33,698.56 318.22,700.9 313.33,703.25 &#9;&#9;&#9;"/>
        <polygon fill="#B9B8B9" points="166.88,698.56 161.98,700.91 166.88,703.25 &#9;&#9;&#9;"/>
        <line fill="none" stroke="#B9B8B9" stroke-width="0.75" stroke-miterlimit="10" x1="166.72" y1="700.9" x2="313.47" y2="700.9"/>
        <line fill="none" stroke="#B9B8B9" stroke-width="0.75" stroke-miterlimit="10" x1="158.22" y1="695.4" x2="158.22" y2="706.4"/>
        <line fill="none" stroke="#B9B8B9" stroke-width="0.75" stroke-miterlimit="10" x1="322.47" y1="695.4" x2="322.47" y2="706.4"/>
      </g>
      <g id="Layer_16_copy">
        <polygon fill="#B9B8B9" points="360.17,629.37 357.83,634.26 355.48,629.37 &#9;&#9;&#9;"/>
        <polygon fill="#B9B8B9" points="360.17,563.92 357.83,559.02 355.48,563.92 &#9;&#9;&#9;"/>
        <line fill="none" stroke="#B9B8B9" stroke-width="0.75" stroke-miterlimit="10" x1="357.83" y1="563.76" x2="357.83" y2="629.51"/>
        <line fill="none" stroke="#B9B8B9" stroke-width="0.75" stroke-miterlimit="10" x1="363.33" y1="555.26" x2="352.33" y2="555.26"/>
        <line fill="none" stroke="#B9B8B9" stroke-width="0.75" stroke-miterlimit="10" x1="363.33" y1="638.51" x2="352.33" y2="638.51"/>
      </g>
      <g id="Layer_16_copy_2">
        <polygon fill="#B9B8B9" points="130.17,669.37 127.83,674.26 125.48,669.37 &#9;&#9;&#9;"/>
        <polygon fill="#B9B8B9" points="130.17,522.92 127.83,518.02 125.48,522.92 &#9;&#9;&#9;"/>
        <line fill="none" stroke="#B9B8B9" stroke-width="0.75" stroke-miterlimit="10" x1="127.83" y1="522.76" x2="127.83" y2="669.51"/>
        <line fill="none" stroke="#B9B8B9" stroke-width="0.75" stroke-miterlimit="10" x1="133.33" y1="514.26" x2="122.33" y2="514.26"/>
        <line fill="none" stroke="#B9B8B9" stroke-width="0.75" stroke-miterlimit="10" x1="133.33" y1="678.51" x2="122.33" y2="678.51"/>
      </g>
    </g>
    <g id="cover-mockup">
      <g id="allas">
        <path fill="#DFE0E2" stroke="#CECECD" stroke-width="0.5" stroke-miterlimit="10" d="M132.78,169.49 c0,0,17.35,115.6,18.75,120.95s1.08,4.73,8.22,9.92c7.13,5.2,173.88,126.5,192.28,139.56c21.4,15.2,37.45,16.13,61.17,6.13 c23.72-10,238.03-138.01,242.76-141.34c4.73-3.34,5.19-10.31,5.19-10.31l17.54-113.84"/>
        <g id="Layer_3">
          <defs>
            <path id="SVGID_7_" d="M130.74,163.41c0,0,18.92,121.19,20.31,126.54c1.4,5.35,1.08,4.73,8.22,9.92 c7.13,5.2,173.88,126.5,192.28,139.56c21.4,15.2,37.45,16.13,61.17,6.12c23.72-10,238.03-138.01,242.76-141.34 s5.19-10.31,5.19-10.31l18.38-121.81L130.74,163.41z"/>
          </defs>
          <clipPath id="SVGID_8_">
            <path d="M130.74,163.41c0,0,18.92,121.19,20.31,126.54c1.4,5.35,1.08,4.73,8.22,9.92 c7.13,5.2,173.88,126.5,192.28,139.56c21.4,15.2,37.45,16.13,61.17,6.12c23.72-10,238.03-138.01,242.76-141.34 s5.19-10.31,5.19-10.31l18.38-121.81L130.74,163.41z" transform="matrix(1, 0, 0, 1, 0, 0)" overflow="visible"/>
          </clipPath>
          <line clip-path="url(#SVGID_8_)" fill="none" stroke="#F4F4F4" stroke-miterlimit="10" x1="373.14" y1="284.05" x2="375.8" y2="461.39"/>
          <line clip-path="url(#SVGID_8_)" fill="none" stroke="#F4F4F4" stroke-miterlimit="10" x1="315.14" y1="256.05" x2="317.8" y2="433.39"/>
          <line clip-path="url(#SVGID_8_)" fill="none" stroke="#F4F4F4" stroke-miterlimit="10" x1="343.64" y1="271.05" x2="346.3" y2="448.39"/>
          <line clip-path="url(#SVGID_8_)" fill="none" stroke="#F4F4F4" stroke-miterlimit="10" x1="267.14" y1="235.05" x2="269.8" y2="412.39"/>
          <line clip-path="url(#SVGID_8_)" fill="none" stroke="#F4F4F4" stroke-miterlimit="10" x1="290.14" y1="251.55" x2="292.8" y2="428.89"/>
          <line clip-path="url(#SVGID_8_)" fill="none" stroke="#F4F4F4" stroke-miterlimit="10" x1="216.14" y1="203.55" x2="220.8" y2="380.89"/>
          <line clip-path="url(#SVGID_8_)" fill="none" stroke="#F4F4F4" stroke-miterlimit="10" x1="241.39" y1="219.8" x2="244.05" y2="397.14"/>
          <line clip-path="url(#SVGID_8_)" fill="none" stroke="#F4F4F4" stroke-miterlimit="10" x1="149.89" y1="165.3" x2="162.55" y2="342.64"/>
          <line clip-path="url(#SVGID_8_)" fill="none" stroke="#F4F4F4" stroke-miterlimit="10" x1="171.39" y1="173.8" x2="180.05" y2="351.14"/>
          <line clip-path="url(#SVGID_8_)" fill="none" stroke="#F4F4F4" stroke-miterlimit="10" x1="192.89" y1="182.8" x2="199.55" y2="360.14"/>
          <line clip-path="url(#SVGID_8_)" fill="none" stroke="#F4F4F4" stroke-miterlimit="10" x1="402.64" y1="285.05" x2="405.3" y2="462.39"/>
          <line clip-path="url(#SVGID_8_)" fill="none" stroke="#F4F4F4" stroke-miterlimit="10" x1="428.64" y1="268.55" x2="431.3" y2="445.89"/>
          <line clip-path="url(#SVGID_8_)" fill="none" stroke="#F4F4F4" stroke-miterlimit="10" x1="455.14" y1="257.05" x2="457.8" y2="434.39"/>
          <line clip-path="url(#SVGID_8_)" fill="none" stroke="#F4F4F4" stroke-miterlimit="10" x1="481.64" y1="236.55" x2="484.3" y2="413.89"/>
          <line clip-path="url(#SVGID_8_)" fill="none" stroke="#F4F4F4" stroke-miterlimit="10" x1="507.64" y1="231.05" x2="510.3" y2="408.39"/>
          <line clip-path="url(#SVGID_8_)" fill="none" stroke="#F4F4F4" stroke-miterlimit="10" x1="531.64" y1="221.55" x2="534.3" y2="398.89"/>
          <line clip-path="url(#SVGID_8_)" fill="none" stroke="#F4F4F4" stroke-miterlimit="10" x1="554.64" y1="204.05" x2="557.3" y2="381.39"/>
          <line clip-path="url(#SVGID_8_)" fill="none" stroke="#F4F4F4" stroke-miterlimit="10" x1="576.14" y1="195.05" x2="578.8" y2="372.39"/>
          <line clip-path="url(#SVGID_8_)" fill="none" stroke="#F4F4F4" stroke-miterlimit="10" x1="601.64" y1="186.05" x2="600.3" y2="363.39"/>
          <line clip-path="url(#SVGID_8_)" fill="none" stroke="#F4F4F4" stroke-miterlimit="10" x1="622.64" y1="180.55" x2="618.3" y2="357.89"/>
          <line clip-path="url(#SVGID_8_)" fill="none" stroke="#F4F4F4" stroke-miterlimit="10" x1="640.14" y1="175.05" x2="634.8" y2="352.39"/>
          <line clip-path="url(#SVGID_8_)" fill="none" stroke="#F4F4F4" stroke-miterlimit="10" x1="659.64" y1="170.55" x2="646.3" y2="347.89"/>
        </g>
        <g id="Layer_3_copy">
          <defs>
            <path id="SVGID_9_" d="M130.74,163.41c0,0,18.92,121.19,20.31,126.54c1.4,5.35,1.08,4.73,8.22,9.92 c7.13,5.2,173.88,126.5,192.28,139.56c21.4,15.2,37.45,16.13,61.17,6.12c23.72-10,238.03-138.01,242.76-141.34 s5.19-10.31,5.19-10.31l18.38-121.81L130.74,163.41z"/>
          </defs>
          <clipPath id="SVGID_10_">
            <path d="M130.74,163.41c0,0,18.92,121.19,20.31,126.54c1.4,5.35,1.08,4.73,8.22,9.92 c7.13,5.2,173.88,126.5,192.28,139.56c21.4,15.2,37.45,16.13,61.17,6.12c23.72-10,238.03-138.01,242.76-141.34 s5.19-10.31,5.19-10.31l18.38-121.81L130.74,163.41z" transform="matrix(1, 0, 0, 1, 0, 0)" overflow="visible"/>
          </clipPath>
          <line clip-path="url(#SVGID_10_)" fill="none" stroke="#CECECD" stroke-miterlimit="10" x1="374.14" y1="284.05" x2="376.8" y2="461.39"/>
          <line clip-path="url(#SVGID_10_)" fill="none" stroke="#CECECD" stroke-miterlimit="10" x1="316.14" y1="256.05" x2="318.8" y2="433.39"/>
          <line clip-path="url(#SVGID_10_)" fill="none" stroke="#CECECD" stroke-miterlimit="10" x1="344.64" y1="271.05" x2="347.3" y2="448.39"/>
          <line clip-path="url(#SVGID_10_)" fill="none" stroke="#CECECD" stroke-miterlimit="10" x1="268.14" y1="235.05" x2="270.8" y2="412.39"/>
          <line clip-path="url(#SVGID_10_)" fill="none" stroke="#CECECD" stroke-miterlimit="10" x1="291.14" y1="251.55" x2="293.8" y2="428.89"/>
          <line clip-path="url(#SVGID_10_)" fill="none" stroke="#CECECD" stroke-miterlimit="10" x1="217.14" y1="203.55" x2="221.8" y2="380.89"/>
          <line clip-path="url(#SVGID_10_)" fill="none" stroke="#CECECD" stroke-miterlimit="10" x1="242.39" y1="219.8" x2="245.05" y2="397.14"/>
          <line clip-path="url(#SVGID_10_)" fill="none" stroke="#CECECD" stroke-miterlimit="10" x1="150.89" y1="165.3" x2="163.55" y2="342.64"/>
          <line clip-path="url(#SVGID_10_)" fill="none" stroke="#CECECD" stroke-miterlimit="10" x1="172.39" y1="173.8" x2="181.05" y2="351.14"/>
          <line clip-path="url(#SVGID_10_)" fill="none" stroke="#CECECD" stroke-miterlimit="10" x1="193.89" y1="182.8" x2="200.55" y2="360.14"/>
          <line clip-path="url(#SVGID_10_)" fill="none" stroke="#CECECD" stroke-miterlimit="10" x1="403.64" y1="285.05" x2="406.3" y2="462.39"/>
          <line clip-path="url(#SVGID_10_)" fill="none" stroke="#CECECD" stroke-miterlimit="10" x1="429.64" y1="268.55" x2="432.3" y2="445.89"/>
          <line clip-path="url(#SVGID_10_)" fill="none" stroke="#CECECD" stroke-miterlimit="10" x1="456.14" y1="257.05" x2="458.8" y2="434.39"/>
          <line clip-path="url(#SVGID_10_)" fill="none" stroke="#CECECD" stroke-miterlimit="10" x1="482.64" y1="236.55" x2="485.3" y2="413.89"/>
          <line clip-path="url(#SVGID_10_)" fill="none" stroke="#CECECD" stroke-miterlimit="10" x1="508.64" y1="231.05" x2="511.3" y2="408.39"/>
          <line clip-path="url(#SVGID_10_)" fill="none" stroke="#CECECD" stroke-miterlimit="10" x1="532.64" y1="221.55" x2="535.3" y2="398.89"/>
          <line clip-path="url(#SVGID_10_)" fill="none" stroke="#CECECD" stroke-miterlimit="10" x1="555.64" y1="204.05" x2="558.3" y2="381.39"/>
          <line clip-path="url(#SVGID_10_)" fill="none" stroke="#CECECD" stroke-miterlimit="10" x1="577.14" y1="195.05" x2="579.8" y2="372.39"/>
          <line clip-path="url(#SVGID_10_)" fill="none" stroke="#CECECD" stroke-miterlimit="10" x1="602.64" y1="186.05" x2="601.3" y2="363.39"/>
          <line clip-path="url(#SVGID_10_)" fill="none" stroke="#CECECD" stroke-miterlimit="10" x1="623.64" y1="180.55" x2="619.3" y2="357.89"/>
          <line clip-path="url(#SVGID_10_)" fill="none" stroke="#CECECD" stroke-miterlimit="10" x1="641.14" y1="175.05" x2="635.8" y2="352.39"/>
          <line clip-path="url(#SVGID_10_)" fill="none" stroke="#CECECD" stroke-miterlimit="10" x1="660.64" y1="170.55" x2="647.3" y2="347.89"/>
        </g>
      </g>
      <g id="kansi">
        <g id="Layer_49">
          <polygon fill="#5A2524" points="627.86,230.98 632.98,227.49 633.98,195.97 627.86,195.97 &#9;&#9;&#9;&#9;"/>
          <polygon fill="#5A2524" points="439.41,305.06 446.44,301.06 446.44,264.89 439.41,264.89 &#9;&#9;&#9;&#9;"/>
        </g>
        <path id="kannen-savy" fill="#5A2524" d="M131.53,169.26c-1.56-0.83-4-3.42-4.65-6.98c-1.58-8.56-3.02-19.98-3.02-24.42 c0-5.81,10.18-7.13,13.72-7.91c14.89-3.26,253.19-46.17,262.38-47.92c9.19-1.74,28.26-1.16,35.36,0 c2.91,0.48,98.82,16.78,98.82,16.78s141.98,33.46,145.42,34.39c1.82,0.49,10.57,2.31,9.52,10.6 c-1.33,10.46-3.38,24.02-4.83,30.81c-0.75,3.5-3.2,5.07-4.94,5.75S431.95,281.55,410.96,289.51c-19.17,7.27-39.01,7.04-64.51-6.2 C328.24,273.85,133.08,170.09,131.53,169.26z"/>
        <path id="vaalea-hohto" opacity="0.2" fill="#FFFFFF" d="M127.11,139.72c-6.05-3.49-4.42-6.51,10.47-9.77 c14.89-3.26,253.19-46.17,262.38-47.92c9.19-1.74,28.26-1.16,35.36,0c3,0.49,97.67,16.52,97.67,16.52s144.58,34.17,148.33,35.25 c8.9,2.57,9.75,10.22,0.33,14.05c-9.42,3.84-260,97.83-275.93,102.95c-16.08,5.17-30.25,4.5-47.62-2.23 c-7.95-3.08-137.46-74.13-137.46-74.13S129.79,141.26,127.11,139.72z"/>
        <g id="viivat">
          <g opacity="0.5">
            <g>
              <path fill="none" stroke="#FFFFFF" stroke-linecap="round" stroke-linejoin="round" d="M686.45,156.81 c-0.35,0.14-0.98,0.39-1.85,0.74"/>
              <path fill="none" stroke="#FFFFFF" stroke-linecap="round" stroke-linejoin="round" stroke-dasharray="4.0139,4.0139" d=" M680.87,159.03c-38.23,15.14-249.01,97.93-263.25,103.19c-28.09,10.38-38.42,10.58-61.35,0.82 c-12.63-5.38-198.89-97.8-227.51-112.39"/>
              <path fill="none" stroke="#FFFFFF" stroke-linecap="round" stroke-linejoin="round" d="M126.96,149.74 c-0.93-0.48-1.52-0.79-1.77-0.93"/>
            </g>
          </g>
          <g opacity="0.5">
            <g>
              <line fill="none" stroke="#FFFFFF" stroke-linecap="round" stroke-linejoin="round" x1="531.61" y1="99.22" x2="529.67" y2="99.69"/>
              <path fill="none" stroke="#FFFFFF" stroke-linecap="round" stroke-linejoin="round" stroke-dasharray="4.0183,4.0183" d=" M525.76,100.63l-301.65,72.5c0,0-3.01,0.92-3.08,4.76c-0.05,3.04,0.55,25.94,0.8,35.33"/>
              <path fill="none" stroke="#FFFFFF" stroke-linecap="round" stroke-linejoin="round" d="M221.89,215.23 c0.03,1.26,0.05,2,0.05,2"/>
            </g>
          </g>
        </g>
      </g>
    </g>
    <g id="nuolet-mockup">
      <g id="Layer_13">
        <line fill="none" stroke="#B9B8B9" stroke-width="0.75" stroke-miterlimit="10" x1="130.47" y1="109.72" x2="405.8" y2="62.72"/>
        <line fill="none" stroke="#B9B8B9" stroke-width="0.75" stroke-miterlimit="10" x1="424.47" y1="62.89" x2="680.14" y2="111.05"/>
        <line fill="none" stroke="#B9B8B9" stroke-width="0.75" stroke-miterlimit="10" x1="123.47" y1="101.39" x2="123.47" y2="118.72"/>
        <line fill="none" stroke="#B9B8B9" stroke-width="0.75" stroke-miterlimit="10" x1="415.47" y1="54.05" x2="415.47" y2="71.39"/>
        <line fill="none" stroke="#B9B8B9" stroke-miterlimit="10" x1="688.8" y1="103.72" x2="688.8" y2="121.06"/>
      </g>
      <g id="Layer_15">
        <polygon fill="#B9B8B9" points="404.47,60.56 409.68,62.11 405.21,65.2 &#9;&#9;&#9;"/>
        <polygon fill="#B9B8B9" points="679.64,108.6 684.01,111.82 678.77,113.2 &#9;&#9;&#9;"/>
        <polygon fill="#B9B8B9" points="425.39,65.27 420.9,62.22 426.09,60.63 &#9;&#9;&#9;"/>
        <polygon fill="#B9B8B9" points="132.55,106.95 128.11,110.07 133.33,111.57 &#9;&#9;&#9;"/>
      </g>
      <g id="Layer_23">
        <polygon fill="#B9B8B9" points="109.27,165.37 106.93,170.26 104.58,165.37 &#9;&#9;&#9;"/>
        <polygon fill="#B9B8B9" points="109.27,157.92 106.93,153.02 104.59,157.92 &#9;&#9;&#9;"/>
        <line fill="none" stroke="#B9B8B9" stroke-width="0.75" stroke-miterlimit="10" x1="106.93" y1="157.76" x2="106.93" y2="165.51"/>
        <line fill="none" stroke="#B9B8B9" stroke-width="0.75" stroke-miterlimit="10" x1="112.18" y1="149.26" x2="101.18" y2="149.26"/>
        <line fill="none" stroke="#B9B8B9" stroke-width="0.75" stroke-miterlimit="10" x1="112.18" y1="173.51" x2="101.18" y2="173.51"/>
      </g>
    </g>
    <g id="text">
      <rect x="220.47" y="45.05" fill="none" width="109" height="25"/>
      <text transform="matrix(1 0 0 1 220.4707 55.6948)" style="fill: rgb(18, 17, 18); font-family: &quot;Open Sans&quot;; font-size: 14px; white-space: pre;">A = 100 cm</text>
      <rect x="26" y="155.05" fill="none" width="93.06" height="27"/>
      <text style="fill: rgb(18, 17, 18); font-family: &quot;Open Sans&quot;; font-size: 14px; white-space: pre; text-anchor: end;" x="86" y="165.695">D = 10 cm</text>
      <rect x="42" y="590.39" fill="none" width="109" height="25"/>
      <text style="fill: rgb(18, 17, 18); font-family: &quot;Open Sans&quot;; font-size: 14px; white-space: pre; text-anchor: end;" x="109.991" y="601.029">A = 100 cm</text>
      <rect x="157.47" y="485.55" fill="none" width="109" height="25"/>
      <text transform="matrix(1 0 0 1 157.4707 494.6748)" style="fill: rgb(18, 17, 18); font-family: &quot;Open Sans&quot;; font-size: 12px; font-weight: 700; white-space: pre;">YLÄKUVA</text>
      <rect x="481.47" y="485.89" fill="none" width="109" height="25"/>
      <text transform="matrix(1 0 0 1 481.4707 495.0078)" style="fill: rgb(18, 17, 18); font-family: &quot;Open Sans&quot;; font-size: 12px; font-weight: 700; white-space: pre;">SIVUKUVA</text>
      <rect x="481.47" y="637.22" fill="none" width="172.67" height="25.83"/>
      <text transform="matrix(1 0 0 1 481.4707 646.3418)" style="fill: rgb(18, 17, 18); font-family: &quot;Open Sans&quot;; font-size: 12px; font-weight: 700; white-space: pre;">KULMIEN PYÖRISTYS</text>
      <rect x="481.47" y="504.22" fill="none" width="109" height="25"/>
      <text style="fill: rgb(18, 17, 18); font-family: &quot;Open Sans&quot;; font-size: 12px; white-space: pre;" x="481.471" y="513.341">Helman pituus</text>
      <rect x="200.8" y="717.72" fill="none" width="109" height="25"/>
      <text transform="matrix(1 0 0 1 200.8047 728.3613)" style="fill: rgb(18, 17, 18); font-family: &quot;Open Sans&quot;; font-size: 14px; white-space: pre;">B = 200 cm</text>
      <rect x="370.72" y="593.39" fill="none" width="86.08" height="25"/>
      <text transform="matrix(1 0 0 1 370.7227 604.0293)" style="fill: rgb(18, 17, 18); font-family: &quot;Open Sans&quot;; font-size: 14px; white-space: pre;">E = 70 cm</text>
      <rect x="682.06" y="583.06" fill="none" width="109" height="25"/>
      <text transform="matrix(1 0 0 1 682.0566 593.6953)" style="fill: rgb(18, 17, 18); font-family: &quot;Open Sans&quot;; font-size: 14px; white-space: pre;">D = 10 cm</text>
      <rect x="603.72" y="691.06" fill="none" width="109" height="25"/>
      <text transform="matrix(1 0 0 1 603.7236 701.6953)" style="fill: rgb(18, 17, 18); font-family: &quot;Open Sans&quot;; font-size: 14px; white-space: pre;">C = 15 cm</text>
      <rect x="518.47" y="45.05" fill="none" width="109" height="25"/>
      <text transform="matrix(1 0 0 1 518.4707 55.6948)" style="fill: rgb(18, 17, 18); font-family: &quot;Open Sans&quot;; font-size: 14px; white-space: pre;">B = 200 cm</text>
    </g>
  </g>
  <g id="Layer_105"/>
</svg>