<?xml version="1.0" encoding="utf-8"?>
<svg viewBox="0 0 780 780" xmlns="http://www.w3.org/2000/svg">
  <g id="ocatagon">
    <g id="Layer_48_copy"/>
    <g id="Layer_104"/>
    <g id="Layer_50_copy"/>
    <g id="side-view_copy_2">
      <g id="Layer_24_copy"/>
    </g>
    <g id="Layer_25_copy"/>
    <g id="nuolet-side-view_copy_2">
      <g id="Layer_16_copy_5_3_"/>
    </g>
    <g id="top-view_copy_2"/>
    <g id="nuolet-top-view_copy_2">
      <g id="Layer_16_copy_5_2_"/>
      <g id="Layer_16_copy_5_1_"/>
      <g id="Layer_16_copy_5"/>
    </g>
    <g id="nuolet-mockup_copy_2">
      <g id="Layer_13_copy_2"/>
      <g id="Layer_15_copy_2"/>
      <g id="Layer_23_copy_2"/>
    </g>
    <g id="text_copy_2"/>
  </g>
  <g id="allas_3_">
    <g id="Layer_106" display="none"/>
    <g id="Layer_106_copy_2"/>
    <g id="Layer_106_copy">
      <defs>
        <path id="SVGID_1_" d="M2367.91,207.61l-24.5-10c-0.94-0.38-1.92-0.56-2.96-0.56l-460,7.5c-2.13,0.03-4.14,0.97-5.53,2.57 c-1.4,1.6-2.05,3.73-1.79,5.84l17,139c0.28,2.28,1.59,4.31,3.55,5.5l114.5,69.5c1.17,0.71,2.52,1.09,3.89,1.09h212 c1.32,0,2.61-0.35,3.75-1l120.5-69.5c1.98-1.14,3.33-3.12,3.67-5.38l20.5-136.5C2373.01,212.25,2371.12,208.92,2367.91,207.61z"/>
      </defs>
      <clipPath id="SVGID_2_">
        <path d="M2367.91,207.61l-24.5-10c-0.94-0.38-1.92-0.56-2.96-0.56l-460,7.5c-2.13,0.03-4.14,0.97-5.53,2.57 c-1.4,1.6-2.05,3.73-1.79,5.84l17,139c0.28,2.28,1.59,4.31,3.55,5.5l114.5,69.5c1.17,0.71,2.52,1.09,3.89,1.09h212 c1.32,0,2.61-0.35,3.75-1l120.5-69.5c1.98-1.14,3.33-3.12,3.67-5.38l20.5-136.5C2373.01,212.25,2371.12,208.92,2367.91,207.61z" transform="matrix(1, 0, 0, 1, 0, 0)" overflow="visible"/>
      </clipPath>
      <g id="Layer_3_copy_2" clip-path="url(#SVGID_2_)"/>
      <g id="Layer_3_copy_4" clip-path="url(#SVGID_2_)"/>
    </g>
    <g id="Layer_107"/>
    <g id="vaalea-hohto_1_" opacity="0.2"/>
    <g id="Layer_107_copy_3"/>
    <g id="viivat_1_"/>
  </g>
  <g id="Layer_111"/>
  <g id="square">
    <g id="Layer_48_copy_2"/>
    <g id="Layer_50_copy_2"/>
    <g id="side-view_copy_3">
      <g id="Layer_24_copy_2"/>
    </g>
    <g id="Layer_25_copy_2"/>
    <g id="nuolet-side-view_copy_3">
      <g id="Layer_16_copy_6_3_"/>
    </g>
    <g id="top-view_copy_3"/>
    <g id="nuolet-top-view_copy_3">
      <g id="Layer_16_copy_6_2_"/>
      <g id="Layer_16_copy_6_1_"/>
      <g id="Layer_16_copy_6"/>
    </g>
    <g id="cover-mockup_copy_2">
      <g id="allas_copy_2">
        <g id="Layer_77_copy">
          <defs>
            <path id="SVGID_3_" d="M994.7,169.49c0,0,17.35,115.6,18.75,120.95s1.59,5.53,3.8,7.03c6.61,4.49,191.99,136.08,226.08,160.25 c3.58,2.54,6.5,1.64,9.5-0.08c35.33-20.3,260.44-150.26,265.06-152.93c2-1.16,4.13-2.41,4.57-4.97 c0.54-3.15,18.16-119.19,18.16-119.19"/>
          </defs>
          <clipPath id="SVGID_4_">
            <path d="M994.7,169.49c0,0,17.35,115.6,18.75,120.95s1.59,5.53,3.8,7.03c6.61,4.49,191.99,136.08,226.08,160.25 c3.58,2.54,6.5,1.64,9.5-0.08c35.33-20.3,260.44-150.26,265.06-152.93c2-1.16,4.13-2.41,4.57-4.97 c0.54-3.15,18.16-119.19,18.16-119.19" transform="matrix(1, 0, 0, 1, 0, 0)" overflow="visible"/>
          </clipPath>
          <g id="Layer_3_copy_3_1_" clip-path="url(#SVGID_4_)"/>
          <g id="Layer_3_copy_3" clip-path="url(#SVGID_4_)"/>
        </g>
      </g>
      <g id="kansi_copy_2">
        <g id="Layer_49_copy_2"/>
        <g id="viivat_copy_2"/>
      </g>
    </g>
    <g id="nuolet-mockup_copy_3">
      <g id="Layer_13_copy_3"/>
      <g id="Layer_15_copy_3"/>
      <g id="Layer_23_copy_3"/>
    </g>
    <g id="text_copy_3"/>
  </g>
  <g id="circular">
    <g id="side-view_copy">
      <g id="Layer_51">
        <path fill="#5A2524" d="M645.63,611.97c0,3.09-2.5,5.59-5.59,5.59H481.89v-85.67l158.15,9c3.09,0,5.59,2.5,5.59,5.59V611.97z"/>
        <line fill="none" stroke="#FFFFFF" stroke-linecap="round" stroke-linejoin="round" stroke-miterlimit="10" stroke-dasharray="4" x1="647.14" y1="561.56" x2="475.47" y2="561.56"/>
      </g>
    </g>
    <g id="nuolet-side-view_copy">
      <g id="Layer_16_copy_4_3_">
        <polygon fill="#B9B8B9" points="671.24,607.37 668.89,612.26 666.55,607.37 &#9;&#9;&#9;"/>
        <polygon fill="#B9B8B9" points="671.24,570.92 668.89,566.02 666.55,570.92 &#9;&#9;&#9;"/>
        <line fill="none" stroke="#B9B8B9" stroke-width="0.75" stroke-miterlimit="10" x1="668.89" y1="570.76" x2="668.89" y2="607.51"/>
        <line fill="none" stroke="#B9B8B9" stroke-width="0.75" stroke-miterlimit="10" x1="674.39" y1="562.26" x2="663.39" y2="562.26"/>
        <line fill="none" stroke="#B9B8B9" stroke-width="0.75" stroke-miterlimit="10" x1="674.39" y1="616.51" x2="663.39" y2="616.51"/>
      </g>
    </g>
    <g id="top-view_copy">
      <g id="Layer_47">
        <circle fill="#5A2524" cx="239.25" cy="596.39" r="82"/>
      </g>
      <g>
        <rect x="169.25" y="533.93" transform="matrix(0.7071 0.7071 -0.7071 0.7071 431.6555 29.7527)" fill="#5A2524" width="21.33" height="4"/>
        <rect x="290.16" y="654.85" transform="matrix(0.7071 0.7071 -0.7071 0.7071 552.593 -20.324)" fill="#5A2524" width="21.33" height="4"/>
        <rect x="169.25" y="654.85" transform="matrix(0.7071 -0.7071 0.7071 0.7071 -411.7761 319.6224)" fill="#5A2524" width="21.33" height="4"/>
        <rect x="290.16" y="533.93" transform="matrix(0.7071 -0.7071 0.7071 0.7071 -290.85 369.6882)" fill="#5A2524" width="21.33" height="4"/>
      </g>
      <line fill="none" stroke="#FFFFFF" stroke-linecap="round" stroke-linejoin="round" stroke-miterlimit="10" stroke-dasharray="4" x1="240.04" y1="515.39" x2="240.04" y2="679.06"/>
    </g>
    <g id="nuolet-top-view_copy">
      <g id="Layer_16_copy_4_2_">
        <polygon fill="#B9B8B9" points="313.39,698.56 318.29,700.9 313.39,703.25 &#9;&#9;&#9;"/>
        <polygon fill="#B9B8B9" points="166.94,698.56 162.05,700.91 166.94,703.25 &#9;&#9;&#9;"/>
        <line fill="none" stroke="#B9B8B9" stroke-width="0.75" stroke-miterlimit="10" x1="166.79" y1="700.9" x2="313.54" y2="700.9"/>
        <line fill="none" stroke="#B9B8B9" stroke-width="0.75" stroke-miterlimit="10" x1="158.29" y1="695.4" x2="158.29" y2="706.4"/>
        <line fill="none" stroke="#B9B8B9" stroke-width="0.75" stroke-miterlimit="10" x1="322.54" y1="695.4" x2="322.54" y2="706.4"/>
      </g>
      <g id="Layer_16_copy_4_1_" display="none">
        <polygon display="inline" fill="#B9B8B9" points="355.24,639.37 352.89,644.26 350.55,639.37 &#9;&#9;&#9;"/>
        <polygon display="inline" fill="#B9B8B9" points="355.24,573.92 352.89,569.02 350.55,573.92 &#9;&#9;&#9;"/>
        <line display="inline" fill="none" stroke="#B9B8B9" stroke-width="0.75" stroke-miterlimit="10" x1="352.89" y1="573.76" x2="352.89" y2="639.51"/>
        <line display="inline" fill="none" stroke="#B9B8B9" stroke-width="0.75" stroke-miterlimit="10" x1="358.39" y1="565.26" x2="347.39" y2="565.26"/>
        <line display="inline" fill="none" stroke="#B9B8B9" stroke-width="0.75" stroke-miterlimit="10" x1="358.39" y1="648.51" x2="347.39" y2="648.51"/>
      </g>
      <g id="Layer_16_copy_4">
        <polygon fill="#B9B8B9" points="130.24,669.37 127.89,674.26 125.55,669.37 &#9;&#9;&#9;"/>
        <polygon fill="#B9B8B9" points="130.24,522.92 127.89,518.02 125.55,522.92 &#9;&#9;&#9;"/>
        <line fill="none" stroke="#B9B8B9" stroke-width="0.75" stroke-miterlimit="10" x1="127.89" y1="522.76" x2="127.89" y2="669.51"/>
        <line fill="none" stroke="#B9B8B9" stroke-width="0.75" stroke-miterlimit="10" x1="133.39" y1="514.26" x2="122.39" y2="514.26"/>
        <line fill="none" stroke="#B9B8B9" stroke-width="0.75" stroke-miterlimit="10" x1="133.39" y1="678.51" x2="122.39" y2="678.51"/>
      </g>
    </g>
    <g id="nuolet-mockup_copy">
      <g id="Layer_13_copy">
        <line fill="none" stroke="#B9B8B9" stroke-width="0.75" stroke-miterlimit="10" x1="128.54" y1="109.72" x2="403.87" y2="62.72"/>
        <line fill="none" stroke="#B9B8B9" stroke-width="0.75" stroke-miterlimit="10" x1="422.54" y1="62.89" x2="678.2" y2="111.05"/>
        <line fill="none" stroke="#B9B8B9" stroke-width="0.75" stroke-miterlimit="10" x1="121.54" y1="101.39" x2="121.54" y2="118.72"/>
        <line fill="none" stroke="#B9B8B9" stroke-width="0.75" stroke-miterlimit="10" x1="413.54" y1="54.05" x2="413.54" y2="71.39"/>
        <line fill="none" stroke="#B9B8B9" stroke-miterlimit="10" x1="686.87" y1="103.72" x2="686.87" y2="121.06"/>
      </g>
      <g id="Layer_15_copy">
        <polygon fill="#B9B8B9" points="402.54,60.56 407.74,62.11 403.28,65.2 &#9;&#9;&#9;"/>
        <polygon fill="#B9B8B9" points="677.71,108.6 682.08,111.82 676.83,113.2 &#9;&#9;&#9;"/>
        <polygon fill="#B9B8B9" points="423.45,65.27 418.96,62.22 424.15,60.63 &#9;&#9;&#9;"/>
        <polygon fill="#B9B8B9" points="130.62,106.95 126.18,110.07 131.39,111.57 &#9;&#9;&#9;"/>
      </g>
      <g id="Layer_23_copy">
        <polygon fill="#B9B8B9" points="128.34,207.37 125.99,212.26 123.65,207.37 &#9;&#9;&#9;"/>
        <polygon fill="#B9B8B9" points="128.34,199.92 126,195.02 123.65,199.92 &#9;&#9;&#9;"/>
        <line fill="none" stroke="#B9B8B9" stroke-width="0.75" stroke-miterlimit="10" x1="125.99" y1="199.76" x2="125.99" y2="207.51"/>
        <line fill="none" stroke="#B9B8B9" stroke-width="0.75" stroke-miterlimit="10" x1="131.24" y1="191.26" x2="120.24" y2="191.26"/>
        <line fill="none" stroke="#B9B8B9" stroke-width="0.75" stroke-miterlimit="10" x1="131.24" y1="215.51" x2="120.24" y2="215.51"/>
      </g>
    </g>
    <g id="text_copy">
      <rect x="218.54" y="45.05" fill="none" width="109" height="25"/>
      <text transform="matrix(1 0 0 1 218.5361 55.6948)" style="fill: rgb(18, 17, 18); font-family: &quot;Open Sans&quot;; font-size: 14px; white-space: pre;">A = 200 cm</text>
      <rect x="47" y="197.05" fill="none" width="85.54" height="41"/>
      <text style="fill: rgb(18, 17, 18); font-family: &quot;Open Sans&quot;; font-size: 14px; white-space: pre; text-anchor: end;" x="107" y="207.695">D = 10 cm</text>
      <rect x="19.58" y="590.39" fill="none" width="96.89" height="28.67"/>
      <text style="fill: rgb(18, 17, 18); font-family: &quot;Open Sans&quot;; font-size: 14px; white-space: pre; text-anchor: end;" x="109.993" y="601.041">A = 200 cm</text>
      <rect x="157.47" y="485.55" fill="none" width="109" height="25"/>
      <text transform="matrix(1 0 0 1 157.4697 494.6748)" style="fill: rgb(18, 17, 18); font-family: &quot;Open Sans&quot;; font-size: 12px; font-weight: 700; white-space: pre;">YLÄKUVA</text>
      <rect x="481.47" y="485.89" fill="none" width="109" height="25"/>
      <text transform="matrix(1 0 0 1 481.4697 495.0078)" style="fill: rgb(18, 17, 18); font-family: &quot;Open Sans&quot;; font-size: 12px; font-weight: 700; white-space: pre;">SIVUKUVA</text>
      <rect x="481.54" y="504.22" fill="none" width="109" height="25"/>
      <text transform="matrix(1 0 0 1 481.5361 513.3408)" style="fill: rgb(18, 17, 18); font-family: &quot;Open Sans&quot;; font-size: 12px; white-space: pre;">Helman pituus</text>
      <rect x="200.87" y="717.72" fill="none" width="109" height="25"/>
      <text transform="matrix(1 0 0 1 200.8701 728.3613)" style="fill: rgb(18, 17, 18); font-family: &quot;Open Sans&quot;; font-size: 14px; white-space: pre;">B = 200 cm</text>
      <rect x="365.79" y="603.39" fill="none" width="86.08" height="25"/>
      <text transform="matrix(1 0 0 1 365.7881 614.0293)" display="none" fill="#121112" font-family="'OpenSans'" font-size="14" style="white-space: pre;">E = 70 cm</text>
      <rect x="682.12" y="583.06" fill="none" width="109" height="25"/>
      <text transform="matrix(1 0 0 1 682.1221 593.6953)" style="fill: rgb(18, 17, 18); font-family: &quot;Open Sans&quot;; font-size: 14px; white-space: pre;">D = 5 cm</text>
      <rect x="516.54" y="45.05" fill="none" width="109" height="25"/>
      <text transform="matrix(1 0 0 1 516.5361 55.6948)" style="fill: rgb(18, 17, 18); font-family: &quot;Open Sans&quot;; font-size: 14px; white-space: pre;">B = 200 cm</text>
    </g>
    <g id="allas_2_">
      <g id="allas_1_">
        <path id="altaan-vari_1_" fill="#DFE0E2" stroke="#CECECD" stroke-width="0.5" stroke-miterlimit="10" d="M630.87,327.58 c-10.69,45.87-109.29,105.28-232.27,105.28c-122.98,0-212.45-59.22-222.27-105.28c-5.24-24.58-29.32-142.76-29.32-142.76h517.65 C664.65,184.82,641.25,283.05,630.87,327.58z"/>
        <g id="viivat-tummat">
          <defs>
            <path id="SVGID_5_" d="M630.87,327.58c-10.69,45.87-109.29,105.28-232.27,105.28c-122.98,0-212.45-59.22-222.27-105.28 c-5.24-24.58-29.32-142.76-29.32-142.76h517.65C664.65,184.82,641.25,283.05,630.87,327.58z"/>
          </defs>
          <clipPath id="SVGID_6_">
            <path d="M630.87,327.58c-10.69,45.87-109.29,105.28-232.27,105.28c-122.98,0-212.45-59.22-222.27-105.28 c-5.24-24.58-29.32-142.76-29.32-142.76h517.65C664.65,184.82,641.25,283.05,630.87,327.58z" transform="matrix(1, 0, 0, 1, 0, 0)" overflow="visible" opacity="0.2"/>
          </clipPath>
          <g id="Layer_55" clip-path="url(#SVGID_6_)"/>
          <g id="Layer_57" clip-path="url(#SVGID_6_)">
            <line fill="none" stroke="#CECECD" stroke-miterlimit="10" x1="364.63" y1="264.05" x2="364.63" y2="454.05"/>
            <line fill="none" stroke="#CECECD" stroke-miterlimit="10" x1="333.63" y1="264.05" x2="333.63" y2="454.05"/>
            <line fill="none" stroke="#CECECD" stroke-miterlimit="10" x1="402.63" y1="264.05" x2="402.63" y2="454.05"/>
            <line fill="none" stroke="#CECECD" stroke-miterlimit="10" x1="303.63" y1="264.05" x2="303.63" y2="454.05"/>
            <line fill="none" stroke="#CECECD" stroke-miterlimit="10" x1="169.58" y1="216.05" x2="196.67" y2="454.05"/>
            <line fill="none" stroke="#CECECD" stroke-miterlimit="10" x1="207.58" y1="216.05" x2="213.67" y2="454.05"/>
            <line fill="none" stroke="#CECECD" stroke-miterlimit="10" x1="188.58" y1="216.05" x2="199.67" y2="454.05"/>
            <line fill="none" stroke="#CECECD" stroke-miterlimit="10" x1="229.58" y1="216.05" x2="230.67" y2="454.05"/>
            <line fill="none" stroke="#CECECD" stroke-miterlimit="10" x1="252.58" y1="216.05" x2="252.67" y2="454.05"/>
            <line fill="none" stroke="#CECECD" stroke-miterlimit="10" x1="277.58" y1="216.05" x2="277.67" y2="454.05"/>
            <line fill="none" stroke="#CECECD" stroke-miterlimit="10" x1="442.58" y1="264.05" x2="442.58" y2="454.05"/>
            <line fill="none" stroke="#CECECD" stroke-miterlimit="10" x1="473.58" y1="264.05" x2="473.58" y2="454.05"/>
            <line fill="none" stroke="#CECECD" stroke-miterlimit="10" x1="503.58" y1="264.05" x2="503.58" y2="454.05"/>
            <line fill="none" stroke="#CECECD" stroke-miterlimit="10" x1="637.63" y1="216.05" x2="610.54" y2="454.05"/>
            <line fill="none" stroke="#CECECD" stroke-miterlimit="10" x1="599.63" y1="216.05" x2="593.54" y2="454.05"/>
            <line fill="none" stroke="#CECECD" stroke-miterlimit="10" x1="618.63" y1="216.05" x2="607.54" y2="454.05"/>
            <line fill="none" stroke="#CECECD" stroke-miterlimit="10" x1="577.63" y1="216.05" x2="576.54" y2="454.05"/>
            <line fill="none" stroke="#CECECD" stroke-miterlimit="10" x1="554.63" y1="216.05" x2="554.54" y2="454.05"/>
            <line fill="none" stroke="#CECECD" stroke-miterlimit="10" x1="529.63" y1="216.05" x2="529.54" y2="454.05"/>
          </g>
          <g id="Layer_57_copy" clip-path="url(#SVGID_6_)">
            <line fill="none" stroke="#F4F4F4" stroke-miterlimit="10" x1="363.63" y1="264.05" x2="363.63" y2="454.05"/>
            <line fill="none" stroke="#F4F4F4" stroke-miterlimit="10" x1="332.63" y1="264.05" x2="332.63" y2="454.05"/>
            <line fill="none" stroke="#F4F4F4" stroke-miterlimit="10" x1="401.63" y1="264.05" x2="401.63" y2="454.05"/>
            <line fill="none" stroke="#F4F4F4" stroke-miterlimit="10" x1="302.63" y1="264.05" x2="302.63" y2="454.05"/>
            <line fill="none" stroke="#F4F4F4" stroke-miterlimit="10" x1="168.58" y1="216.05" x2="195.67" y2="454.05"/>
            <line fill="none" stroke="#F4F4F4" stroke-miterlimit="10" x1="206.58" y1="216.05" x2="212.67" y2="454.05"/>
            <line fill="none" stroke="#F4F4F4" stroke-miterlimit="10" x1="187.58" y1="216.05" x2="198.67" y2="454.05"/>
            <line fill="none" stroke="#F4F4F4" stroke-miterlimit="10" x1="228.58" y1="216.05" x2="229.67" y2="454.05"/>
            <line fill="none" stroke="#F4F4F4" stroke-miterlimit="10" x1="251.58" y1="216.05" x2="251.67" y2="454.05"/>
            <line fill="none" stroke="#F4F4F4" stroke-miterlimit="10" x1="276.58" y1="216.05" x2="276.67" y2="454.05"/>
            <line fill="none" stroke="#F4F4F4" stroke-miterlimit="10" x1="441.58" y1="264.05" x2="441.58" y2="454.05"/>
            <line fill="none" stroke="#F4F4F4" stroke-miterlimit="10" x1="472.58" y1="264.05" x2="472.58" y2="454.05"/>
            <line fill="none" stroke="#F4F4F4" stroke-miterlimit="10" x1="502.58" y1="264.05" x2="502.58" y2="454.05"/>
            <line fill="none" stroke="#F4F4F4" stroke-miterlimit="10" x1="636.63" y1="216.05" x2="609.54" y2="454.05"/>
            <line fill="none" stroke="#F4F4F4" stroke-miterlimit="10" x1="598.63" y1="216.05" x2="592.54" y2="454.05"/>
            <line fill="none" stroke="#F4F4F4" stroke-miterlimit="10" x1="617.63" y1="216.05" x2="606.54" y2="454.05"/>
            <line fill="none" stroke="#F4F4F4" stroke-miterlimit="10" x1="576.63" y1="216.05" x2="575.54" y2="454.05"/>
            <line fill="none" stroke="#F4F4F4" stroke-miterlimit="10" x1="553.63" y1="216.05" x2="553.54" y2="454.05"/>
            <line fill="none" stroke="#F4F4F4" stroke-miterlimit="10" x1="528.63" y1="216.05" x2="528.54" y2="454.05"/>
          </g>
        </g>
      </g>
      <polygon fill="#5A2524" points="475.09,314.68 468.07,314.6 468.07,278.43 475.09,278.43 &#9;&#9;"/>
      <polygon fill="#5A2524" points="183.64,262.56 178.52,259.07 177.52,227.55 183.64,227.55 &#9;&#9;"/>
      <path fill="#5A2524" d="M661.25,210.33c-4.95,32.08-113.31,74.2-255.55,74.2c-142.24,0-249.42-42.32-255.55-74.2 c-3.41-17.71-6.45-45.42-6.45-45.42l522,8C665.71,172.91,666.08,179.05,661.25,210.33z"/>
      <path fill="#5A2524" d="M665.71,173.12c0,38.71-115.3,62.09-260,62.09s-262-31.38-262-70.09c0-24.06,113.38-59.57,113.38-59.57 s93.87-10.53,148.63-10.53C550.4,95.03,665.71,137.3,665.71,173.12z"/>
      <path id="hohto_1_" opacity="0.2" fill="#FFFFFF" d="M665.71,175.3c-0.19,2.87-33.51,13.93-33.51,13.93s-92.08,50.82-217.62,50.82 c-144.7,0-270.88-36.41-270.88-74.93c0-23.84,113.42-59.46,113.42-59.46s93.41-10.29,148.58-10.29 c94.96,0,178.85,18.04,224.21,41.19C653.67,148.68,666.58,162.14,665.71,175.3z"/>
      <path opacity="0.5" fill="none" stroke="#FFFFFF" stroke-linecap="round" stroke-linejoin="round" stroke-miterlimit="10" stroke-dasharray="4" d=" M663.69,191.83c-30.01,30.32-132.12,62.42-257.98,62.42c-127.03,0-228.61-32.91-258.28-63.35"/>
      <path opacity="0.5" fill="none" stroke="#FFFFFF" stroke-linecap="round" stroke-linejoin="round" stroke-miterlimit="10" stroke-dasharray="4" d=" M158.6,148.91"/>
      <polyline opacity="0.5" fill="none" stroke="#FFFFFF" stroke-linecap="round" stroke-linejoin="round" stroke-miterlimit="10" stroke-dasharray="4" points="&#10;&#9;&#9;&#9;258.58,107.55 633.06,189.55 632.58,239.01 &#9;&#9;"/>
    </g>
  </g>
  <g id="rounded-corners">
    <g id="Layer_48"/>
    <g id="Layer_50"/>
    <g id="side-view">
      <g id="Layer_24"/>
    </g>
    <g id="Layer_25"/>
    <g id="nuolet-side-view">
      <g id="Layer_16_copy_3"/>
    </g>
    <g id="top-view"/>
    <g id="nuolet-top-view">
      <g id="Layer_16"/>
      <g id="Layer_16_copy"/>
      <g id="Layer_16_copy_2"/>
    </g>
    <g id="cover-mockup">
      <g id="allas">
        <g id="Layer_3">
          <defs>
            <path id="SVGID_7_" d="M-731.15,163.41c0,0,18.92,121.19,20.31,126.54c1.4,5.35,1.08,4.73,8.22,9.92 c7.13,5.2,173.88,126.5,192.28,139.56c21.4,15.2,37.45,16.13,61.17,6.12c23.72-10,238.03-138.01,242.76-141.34 s5.19-10.31,5.19-10.31l18.38-121.81L-731.15,163.41z"/>
          </defs>
        </g>
        <g id="Layer_3_copy">
          <defs>
            <path id="SVGID_9_" d="M-731.15,163.41c0,0,18.92,121.19,20.31,126.54c1.4,5.35,1.08,4.73,8.22,9.92 c7.13,5.2,173.88,126.5,192.28,139.56c21.4,15.2,37.45,16.13,61.17,6.12c23.72-10,238.03-138.01,242.76-141.34 s5.19-10.31,5.19-10.31l18.38-121.81L-731.15,163.41z"/>
          </defs>
        </g>
      </g>
      <g id="kansi">
        <g id="Layer_49"/>
        <g id="viivat"/>
      </g>
    </g>
    <g id="nuolet-mockup">
      <g id="Layer_13"/>
      <g id="Layer_15"/>
      <g id="Layer_23"/>
    </g>
    <g id="text"/>
  </g>
  <g id="Layer_105"/>
</svg>